<?xml version="1.0" standalone="no"?>
<!DOCTYPE svg PUBLIC "-//W3C//DTD SVG 20010904//EN"
 "http://www.w3.org/TR/2001/REC-SVG-20010904/DTD/svg10.dtd">
<svg version="1.0" xmlns="http://www.w3.org/2000/svg"
 width="512.000000pt" height="512.000000pt" viewBox="0 0 512.000000 512.000000"
 preserveAspectRatio="xMidYMid meet">
<metadata>
Created by potrace 1.11, written by Peter Selinger 2001-2013
</metadata>
<g transform="translate(0.000000,512.000000) scale(0.100000,-0.100000)"
fill="#000000" stroke="none">
<path d="M2405 5114 c-460 -35 -891 -180 -1255 -422 -630 -419 -1028 -1063
-1131 -1832 -16 -122 -16 -478 0 -600 39 -293 125 -579 246 -825 384 -781
1112 -1297 1995 -1416 52 -7 187 -13 300 -13 303 0 526 36 810 130 761 253
1361 853 1614 1614 94 284 130 507 130 810 0 303 -36 526 -130 810 -307 925
-1110 1588 -2090 1725 -103 15 -397 26 -489 19z m866 -949 c278 -48 488 -184
548 -355 10 -27 20 -52 22 -55 3 -2 37 -8 77 -13 l71 -8 61 67 c74 83 112 99
168 72 26 -13 40 -28 48 -53 17 -50 2 -86 -60 -150 l-55 -55 55 -92 c65 -111
72 -137 44 -181 -24 -38 -62 -56 -106 -48 -39 8 -58 29 -124 143 -54 92 -54
92 -100 98 -25 3 -58 8 -75 10 -26 4 -34 -1 -60 -41 -45 -67 -129 -128 -308
-221 -89 -46 -171 -93 -184 -105 -26 -24 -30 -66 -12 -147 l11 -51 41 8 c23 4
139 7 257 6 201 0 221 -2 313 -27 249 -69 412 -213 488 -435 49 -142 64 -361
34 -476 -47 -177 -159 -305 -337 -385 -145 -65 -287 -91 -536 -98 l-193 -6
-29 -64 c-72 -158 -208 -309 -355 -393 -103 -58 -268 -113 -430 -141 -106 -19
-167 -23 -330 -24 -228 0 -276 9 -411 75 -145 71 -243 206 -278 382 -9 42 -16
86 -16 96 0 17 -10 20 -82 25 -104 6 -181 35 -261 95 -113 87 -177 215 -177
355 0 220 146 413 394 522 l68 30 -6 90 c-3 50 -22 189 -42 310 -46 275 -51
418 -17 481 33 62 91 87 186 82 94 -5 137 -26 217 -108 105 -106 193 -283 271
-545 18 -60 34 -112 35 -114 3 -3 426 89 433 95 2 2 -10 83 -25 181 -25 156
-29 205 -29 398 0 196 3 230 23 310 63 249 208 411 415 461 72 17 257 17 358
-1z m-1387 -299 c49 -28 76 -75 76 -129 0 -34 2 -36 53 -51 30 -9 65 -27 79
-41 36 -36 80 -131 86 -186 3 -38 0 -50 -21 -75 -21 -24 -33 -29 -71 -29 -55
0 -77 19 -104 90 -19 49 -20 50 -83 66 -35 9 -76 22 -90 28 -34 17 -62 66 -69
121 l-5 45 -46 5 c-54 6 -72 19 -89 60 -15 37 -6 75 26 107 25 25 29 26 120
20 77 -4 103 -10 138 -31z m-865 -292 c26 -21 31 -33 31 -68 0 -36 -7 -51 -39
-87 -42 -49 -91 -118 -91 -129 0 -5 21 -20 46 -35 67 -39 84 -60 84 -100 0
-46 -18 -89 -64 -149 -30 -38 -35 -51 -24 -57 7 -5 18 -9 24 -9 6 0 23 -12 38
-26 39 -40 37 -103 -5 -138 -38 -33 -78 -33 -144 -2 -95 44 -179 167 -156 228
5 14 28 43 50 64 23 20 41 40 41 44 0 3 -22 19 -49 34 -50 30 -71 59 -71 99 0
32 64 160 115 232 89 125 150 153 214 99z"/>
<path d="M2959 3967 c-136 -39 -215 -131 -259 -302 -57 -223 -27 -556 97
-1080 52 -218 57 -250 57 -355 1 -191 -56 -335 -178 -455 -80 -79 -164 -125
-284 -156 -122 -31 -180 -22 -208 32 -21 42 -17 75 14 109 22 26 42 34 115 50
110 24 175 59 237 127 42 46 90 139 90 173 0 14 -14 13 -131 -11 -419 -83
-644 -184 -739 -330 -66 -102 -76 -234 -29 -386 27 -87 105 -169 191 -201 152
-57 460 -49 726 18 96 25 242 95 302 145 101 84 183 214 233 370 45 142 52
190 52 390 -1 246 -4 266 -135 770 -91 348 -58 420 262 584 79 41 162 87 186
103 222 153 -40 397 -443 414 -73 3 -125 0 -156 -9z m202 -146 c31 -32 38 -75
17 -114 -18 -34 -40 -46 -84 -47 -32 0 -48 6 -68 26 -20 20 -26 36 -26 68 1
62 35 95 98 96 24 0 42 -8 63 -29z"/>
<path d="M1564 3268 c3 -13 6 -37 6 -54 l0 -32 45 17 c25 9 45 19 45 22 0 4
-16 21 -35 38 -43 38 -70 41 -61 9z"/>
<path d="M1684 3008 l-80 -29 9 -67 c5 -37 11 -68 12 -70 2 -2 194 48 203 54
4 2 -53 144 -58 143 -3 0 -41 -14 -86 -31z"/>
<path d="M3398 2793 c-27 -2 -48 -8 -48 -13 0 -5 13 -63 30 -130 16 -66 35
-157 41 -202 l13 -81 65 7 c163 15 299 74 384 166 54 58 113 162 102 180 -9
15 -108 48 -195 64 -77 15 -262 19 -392 9z"/>
<path d="M1763 2667 l-111 -32 5 -75 c3 -41 7 -77 9 -79 3 -3 255 49 262 55 2
1 -1 19 -7 40 -5 22 -15 58 -21 82 -6 23 -14 42 -18 41 -4 0 -57 -15 -119 -32z"/>
<path d="M2340 2563 c-107 -24 -195 -45 -196 -46 -2 -3 48 -271 52 -276 1 -1
52 9 112 23 60 14 158 35 217 46 60 11 111 22 114 25 2 3 -5 49 -18 103 -42
178 -40 172 -64 171 -12 -1 -110 -21 -217 -46z"/>
<path d="M4120 2513 c-14 -27 -59 -82 -100 -123 -118 -118 -271 -188 -468
-213 l-93 -12 -5 -105 c-3 -99 -19 -232 -31 -274 -5 -18 0 -19 133 -13 367 17
564 98 646 265 32 64 33 71 33 182 0 76 -6 137 -18 180 -18 67 -56 160 -66
160 -3 0 -17 -21 -31 -47z"/>
<path d="M1805 2299 c-66 -15 -130 -31 -141 -33 -17 -5 -23 -16 -28 -51 -4
-24 -23 -76 -42 -114 -64 -128 -176 -204 -323 -219 l-64 -7 35 -45 c47 -62
122 -99 216 -107 58 -5 72 -3 72 8 0 8 16 47 35 87 60 127 176 230 349 313
l82 40 -12 77 c-7 42 -13 78 -13 80 -2 7 -58 -3 -166 -29z"/>
<path d="M1400 2279 c-60 -37 -119 -89 -150 -134 -40 -58 -39 -67 8 -59 59 10
115 41 139 76 23 35 57 138 45 138 -4 0 -23 -10 -42 -21z"/>
</g>
</svg>
